<?xml version="1.0" standalone="no"?>
<!DOCTYPE svg PUBLIC "-//W3C//DTD SVG 20010904//EN"
 "http://www.w3.org/TR/2001/REC-SVG-20010904/DTD/svg10.dtd">
<svg version="1.0" xmlns="http://www.w3.org/2000/svg"
 width="310.000000pt" height="310.000000pt" viewBox="0 0 310.000000 310.000000"
 preserveAspectRatio="xMidYMid meet">
<metadata>
Created by potrace 1.11, written by Peter Selinger 2001-2013
</metadata>
<g transform="translate(0.000000,310.000000) scale(0.100000,-0.100000)"
fill="#000000" stroke="none">
<path d="M0 1550 l0 -1550 1550 0 1550 0 0 1550 0 1550 -1550 0 -1550 0 0
-1550z m1401 140 c9 -35 10 -110 2 -110 -4 0 -20 12 -36 28 -24 22 -37 27 -82
27 -43 0 -59 5 -79 24 -50 47 -38 56 81 56 107 0 108 0 114 -25z m499 9 c0 -8
-12 -26 -26 -40 -22 -20 -35 -24 -85 -22 -53 1 -61 -1 -83 -28 -14 -16 -27
-29 -30 -29 -8 0 -8 69 0 106 l6 29 109 0 c93 0 109 -2 109 -16z m-1221 -263
c0 -5 24 12 51 38 28 26 75 59 106 73 l55 25 -31 34 c-32 37 -40 55 -15 34 8
-6 39 -13 69 -13 53 -2 54 -1 39 18 -9 11 28 -25 81 -80 88 -90 99 -98 108
-81 6 11 26 36 44 55 l33 36 36 -36 36 -35 -36 -47 c-71 -93 -106 -200 -91
-280 7 -38 55 -117 71 -117 13 1 275 97 282 104 3 3 3 20 -1 39 -4 23 -21 48
-53 76 -52 48 -48 67 12 63 19 -2 49 -3 65 -3 17 0 46 1 65 3 51 3 64 -15 29
-44 -54 -45 -63 -57 -70 -94 -4 -24 -3 -39 6 -44 6 -4 70 -29 142 -55 l129
-47 24 22 c83 78 67 236 -39 374 l-38 49 37 36 36 36 27 -30 c15 -17 35 -41
44 -54 l17 -24 91 94 c50 52 89 88 85 82 -4 -10 6 -13 40 -13 34 0 44 -3 39
-12 -4 -7 2 -4 14 6 12 11 22 26 23 35 0 11 2 12 6 3 3 -8 -9 -31 -26 -52 -35
-44 -37 -50 -16 -50 28 0 97 -41 145 -86 l47 -44 7 31 c3 17 7 75 7 128 1 53
4 83 8 68 l6 -29 85 0 c80 0 85 1 91 24 5 15 7 5 8 -31 l1 -53 -37 7 c-21 4
-42 7 -48 8 -6 1 -13 -43 -17 -103 -19 -295 -134 -549 -315 -698 l-42 -34 -12
26 c-7 15 -16 25 -19 24 -4 -2 -35 -38 -69 -81 -127 -160 -269 -280 -419 -353
l-92 -46 -76 36 c-173 82 -346 234 -488 426 -10 14 -20 20 -22 14 -3 -6 -10
-19 -18 -29 -11 -16 -18 -12 -75 41 -169 156 -273 394 -289 664 -4 66 -11 114
-17 113 -6 -1 -27 -4 -47 -8 l-38 -7 1 48 c0 31 3 42 8 31 6 -16 19 -19 91
-19 l85 0 5 28 c2 16 7 -25 11 -91 3 -66 7 -124 8 -129z"/>
<path d="M909 1464 c-59 -18 -127 -78 -163 -145 -27 -49 -28 -55 -17 -97 24
-90 135 -282 162 -282 5 0 19 20 31 45 12 25 25 45 28 45 3 0 22 -29 42 -64
106 -184 292 -379 448 -470 85 -50 99 -52 161 -21 166 83 391 313 496 508 15
26 29 47 33 47 3 0 16 -20 28 -45 12 -25 25 -45 30 -45 28 0 154 223 168 296
13 72 -92 200 -189 229 -28 8 -53 15 -57 15 -3 0 -29 -26 -57 -58 l-51 -58 15
-55 c18 -69 12 -161 -15 -222 -27 -60 -120 -160 -143 -154 -13 4 -19 -4 -24
-29 -12 -64 -85 -120 -142 -109 -10 2 -48 11 -85 20 -62 15 -74 15 -135 0 -38
-9 -78 -18 -90 -21 -12 -2 -41 3 -64 12 -32 13 -46 27 -60 58 -10 23 -19 49
-19 59 0 13 -5 17 -18 13 -25 -8 -116 88 -144 151 -28 63 -34 164 -14 227 l15
49 -52 58 c-29 32 -56 58 -62 58 -5 0 -31 -7 -56 -15z"/>
<path d="M1445 1017 c-86 -33 -95 -40 -95 -74 0 -34 15 -37 106 -18 80 17 88
17 168 0 46 -9 89 -14 95 -11 12 8 14 46 3 62 -7 11 -171 75 -188 73 -5 -1
-45 -15 -89 -32z"/>
</g>
</svg>
